<svg height="512pt" viewBox="0 -17 512 512" width="512pt" xmlns="http://www.w3.org/2000/svg"><path d="m488.183594 478.914062h-464.367188c-13.152344 0-23.816406-10.660156-23.816406-23.816406v-427.117187c0-15.453125 12.527344-27.980469 27.980469-27.980469h460.203125c13.152344 0 23.816406 10.664062 23.816406 23.816406v431.28125c0 13.15625-10.664062 23.816406-23.816406 23.816406zm0 0" fill="#f4f4f4"/><path d="m483.4375 0h-12.191406c2.792968 4.113281 4.425781 9.074219 4.425781 14.421875v450.074219c0 5.34375-1.632813 10.308594-4.425781 14.417968h16.9375c13.152344 0 23.816406-10.660156 23.816406-23.816406v-426.535156c0-15.773438-12.789062-28.5625-28.5625-28.5625zm0 0" fill="#e8e8e8"/><path d="m0 92.164062h512v-67.628906c0-13.550781-10.984375-24.535156-24.535156-24.535156h-462.929688c-13.550781 0-24.535156 10.984375-24.535156 24.535156zm0 0" fill="#fa5d72"/><path d="m487.464844 0h-16.21875c2.792968 4.113281 4.425781 9.074219 4.425781 14.421875v77.742187h36.328125v-67.628906c0-13.550781-10.984375-24.535156-24.535156-24.535156zm0 0" fill="#e35567"/><path d="m79.640625 46.082031c0 10.046875-8.140625 18.1875-18.1875 18.1875-10.042969 0-18.183594-8.140625-18.183594-18.1875 0-10.042969 8.140625-18.1875 18.183594-18.1875 10.046875 0 18.1875 8.144531 18.1875 18.1875zm0 0" fill="#279463"/><path d="m141.207031 46.082031c0 10.046875-8.144531 18.1875-18.1875 18.1875-10.046875 0-18.1875-8.140625-18.1875-18.1875 0-10.042969 8.140625-18.1875 18.1875-18.1875 10.042969 0 18.1875 8.144531 18.1875 18.1875zm0 0" fill="#f6d867"/><path d="m202.769531 46.082031c0 10.046875-8.144531 18.1875-18.1875 18.1875s-18.1875-8.140625-18.1875-18.1875c0-10.042969 8.144531-18.1875 18.1875-18.1875s18.1875 8.144531 18.1875 18.1875zm0 0" fill="#4c7eb0"/><path d="m351.144531 235.917969-85.675781-87.996094c-5.1875-5.328125-13.75-5.328125-18.9375 0l-85.675781 87.996094c-8.15625 8.375-2.21875 22.433593 9.46875 22.433593h25.753906c5.253906 0 9.511719 4.257813 9.511719 9.511719v107.707031c0 7.304688 5.925781 13.230469 13.230468 13.230469h74.359376c7.308593 0 13.230468-5.925781 13.230468-13.230469v-107.707031c0-5.253906 4.257813-9.511719 9.511719-9.511719h25.757813c11.683593 0 17.621093-14.058593 9.464843-22.433593zm0 0" fill="#fa5d72"/><path d="m351.144531 235.917969-85.675781-87.996094c-5.1875-5.328125-13.75-5.328125-18.9375 0l-8.425781 8.652344 77.253906 79.34375c8.152344 8.375 2.21875 22.433593-9.46875 22.433593h-25.757813c-5.253906 0-9.511718 4.257813-9.511718 9.511719v107.707031c0 7.304688-5.921875 13.230469-13.226563 13.230469h35.785157c7.304687 0 13.230468-5.925781 13.230468-13.230469v-107.707031c0-5.253906 4.257813-9.511719 9.511719-9.511719h25.757813c11.683593 0 17.621093-14.058593 9.464843-22.433593zm0 0" fill="#e35567"/><path d="m270.078125 53.808594h188.179687c4.269532 0 7.726563-3.457032 7.726563-7.726563 0-4.265625-3.460937-7.726562-7.726563-7.726562h-188.179687c-4.265625 0-7.726563 3.460937-7.726563 7.726562 0 4.269531 3.460938 7.726563 7.726563 7.726563zm0 0" fill="#495663"/><g fill="#e35567"><path d="m299.621094 405.53125h-87.242188c-4.269531 0-7.726562 3.460938-7.726562 7.726562 0 4.269532 3.457031 7.726563 7.726562 7.726563h87.242188c4.269531 0 7.726562-3.457031 7.726562-7.726563 0-4.265624-3.457031-7.726562-7.726562-7.726562zm0 0"/><path d="m279.589844 427.957031h-47.179688c-4.265625 0-7.722656 3.457031-7.722656 7.726563 0 4.265625 3.457031 7.726562 7.722656 7.726562h47.179688c4.265625 0 7.726562-3.460937 7.726562-7.726562 0-4.269532-3.460937-7.726563-7.726562-7.726563zm0 0"/></g></svg>