<svg xmlns="http://www.w3.org/2000/svg" xmlns:xlink="http://www.w3.org/1999/xlink" preserveAspectRatio="xMidYMid" width="902" height="662" viewBox="0 0 902 662">
  <defs>
    <style>
      .cls-1 {
        fill: #96bc33;
      }

      .cls-1, .cls-2 {
        fill-rule: evenodd;
      }

      .cls-2 {
        fill: #414042;
      }
    </style>
  </defs>
  <g id="artboard-1">
    <path d="M657.970,241.863 C656.627,241.863 655.330,241.680 654.084,241.369 L630.977,275.573 C633.725,278.856 635.382,283.078 635.382,287.690 C635.382,298.136 626.900,306.603 616.438,306.603 C616.238,306.603 616.045,306.580 615.847,306.573 L608.686,331.919 C612.924,334.799 615.709,339.652 615.709,345.156 C615.709,353.995 608.532,361.160 599.679,361.160 C594.304,361.160 589.558,358.509 586.650,354.456 L542.828,368.181 C542.650,374.245 539.094,379.451 533.972,382.011 L536.425,405.271 C543.450,406.970 548.675,413.272 548.675,420.808 C548.675,429.646 541.498,436.811 532.645,436.811 C529.891,436.811 527.301,436.117 525.038,434.896 L513.797,447.115 C515.121,449.443 515.886,452.129 515.886,454.997 C515.886,463.835 508.709,471.000 499.856,471.000 C491.003,471.000 483.826,463.835 483.826,454.997 C483.826,450.431 485.751,446.321 488.824,443.406 L452.677,349.267 C451.547,349.432 450.392,349.521 449.216,349.521 C440.166,349.521 432.305,344.451 428.319,337.003 L380.290,350.908 C379.582,359.498 372.388,366.252 363.601,366.252 C354.346,366.252 346.843,358.761 346.843,349.521 C346.843,347.397 347.255,345.373 347.978,343.504 L313.493,314.814 C310.334,316.974 306.514,318.242 302.396,318.242 C291.531,318.242 282.723,309.449 282.723,298.602 C282.723,297.950 282.762,297.309 282.825,296.674 L233.738,282.547 C230.823,286.540 226.116,289.145 220.789,289.145 C211.935,289.145 204.758,281.980 204.758,273.142 C204.758,266.968 208.266,261.620 213.395,258.951 L204.682,193.232 C195.109,190.910 188.000,182.302 188.000,172.031 C188.000,159.978 197.787,150.208 209.859,150.208 C211.559,150.208 213.211,150.408 214.799,150.775 L234.316,116.008 C232.678,113.499 231.718,110.508 231.718,107.290 C231.718,98.452 238.895,91.287 247.748,91.287 C251.013,91.287 254.045,92.267 256.578,93.940 L341.208,41.480 C341.093,40.638 341.013,39.786 341.013,38.913 C341.013,28.468 349.495,20.000 359.958,20.000 C368.388,20.000 375.523,25.500 377.981,33.099 L505.150,40.601 C507.761,35.298 513.210,31.639 519.529,31.639 C528.382,31.639 535.559,38.804 535.559,47.642 C535.559,49.203 535.325,50.708 534.907,52.134 L610.923,113.268 C614.347,110.882 618.504,109.473 622.995,109.473 C634.665,109.473 644.126,118.917 644.126,130.568 C644.126,137.902 640.373,144.356 634.684,148.136 L657.812,209.864 C657.865,209.864 657.916,209.856 657.970,209.856 C666.823,209.856 674.000,217.021 674.000,225.860 C674.000,234.698 666.823,241.863 657.970,241.863 ZM616.438,268.777 C618.320,268.777 620.134,269.061 621.850,269.571 L642.964,238.316 L548.794,285.057 L598.401,281.912 C600.848,274.295 607.995,268.777 616.438,268.777 ZM472.904,189.909 L338.574,164.606 C337.229,168.135 335.133,171.288 332.493,173.893 L365.523,223.544 C368.752,222.227 372.284,221.495 375.988,221.495 C384.916,221.495 392.852,225.718 397.915,232.268 L473.769,197.847 C473.207,195.392 472.896,192.841 472.896,190.216 C472.896,190.113 472.903,190.012 472.904,189.909 ZM340.235,153.815 L474.741,179.151 C476.621,173.663 479.859,168.804 484.055,164.974 L461.356,132.144 C457.815,133.925 453.817,134.932 449.580,134.932 C440.161,134.932 431.906,129.973 427.280,122.531 L339.810,150.380 C340.024,151.502 340.169,152.648 340.235,153.815 ZM493.198,158.990 C497.457,157.090 502.174,156.027 507.142,156.027 C517.927,156.027 527.541,161.009 533.818,168.787 L602.220,134.216 C602.157,133.857 602.082,133.503 602.037,133.138 L474.054,118.169 C473.048,120.769 471.629,123.161 469.894,125.285 L493.198,158.990 ZM518.411,222.501 L528.981,272.450 C533.431,272.609 537.495,274.251 540.717,276.880 L641.971,226.623 C641.971,226.619 641.971,226.614 641.971,226.610 L538.285,204.392 C534.425,212.823 527.254,219.425 518.411,222.501 ZM591.446,331.445 C593.423,330.254 595.672,329.470 598.089,329.232 L605.473,303.095 C602.009,300.633 599.413,297.041 598.220,292.857 L547.511,296.071 C547.363,296.775 547.191,297.469 546.970,298.144 L591.446,331.445 ZM540.821,307.179 C537.415,309.999 533.043,311.695 528.273,311.695 C521.613,311.695 515.738,308.383 512.178,303.328 L472.198,320.228 C472.319,320.721 472.430,321.217 472.520,321.722 L578.605,335.469 L540.821,307.179 ZM539.403,357.818 L576.500,346.199 L477.006,333.306 L516.837,355.195 C519.576,353.015 523.040,351.703 526.815,351.703 C531.926,351.703 536.468,354.099 539.403,357.818 ZM498.854,439.044 C499.187,439.023 499.518,438.994 499.856,438.994 C501.838,438.994 503.727,439.370 505.479,440.026 L517.747,426.690 C517.024,424.868 516.615,422.887 516.615,420.808 C516.615,414.512 520.266,409.081 525.561,406.468 L523.114,383.264 C516.049,381.594 510.786,375.271 510.786,367.706 C510.786,366.609 510.897,365.537 511.108,364.501 L467.697,340.645 C466.297,342.387 464.660,343.931 462.828,345.219 L498.854,439.044 ZM467.186,310.498 L508.646,292.972 C508.632,292.666 508.600,292.364 508.600,292.055 C508.600,284.816 512.533,278.509 518.371,275.103 L507.640,224.392 C507.474,224.395 507.309,224.405 507.142,224.405 C503.758,224.405 500.492,223.907 497.404,222.994 L461.729,305.811 C463.781,307.089 465.619,308.674 467.186,310.498 ZM437.314,305.444 C440.812,303.410 444.876,302.239 449.216,302.239 C449.928,302.239 450.632,302.276 451.328,302.337 L487.551,218.250 C483.657,215.533 480.356,212.028 477.877,207.968 L402.756,242.057 C403.354,244.317 403.676,246.689 403.676,249.137 C403.676,255.045 401.814,260.515 398.651,265.008 L437.314,305.444 ZM355.027,335.165 C357.538,333.667 360.463,332.790 363.601,332.790 C369.453,332.790 374.598,335.789 377.595,340.327 L425.549,326.444 C425.546,326.294 425.541,326.145 425.538,325.995 L321.146,304.538 C320.944,305.173 320.712,305.794 320.450,306.398 L355.027,335.165 ZM321.369,293.444 L428.021,315.365 C428.435,314.536 428.884,313.728 429.389,312.958 L390.733,272.529 C386.463,275.217 381.409,276.779 375.988,276.779 C367.454,276.779 359.826,272.922 354.746,266.863 L319.750,289.393 C320.430,290.668 320.981,292.021 321.369,293.444 ZM311.938,281.439 L349.514,257.248 C348.726,254.683 348.300,251.960 348.300,249.137 C348.300,241.499 351.403,234.585 356.419,229.582 L323.290,179.781 C321.311,180.524 319.226,181.050 317.053,181.298 L308.567,279.962 C309.744,280.350 310.871,280.847 311.938,281.439 ZM297.632,279.565 L306.171,180.271 C298.244,177.777 291.939,171.635 289.246,163.807 L231.655,173.519 C231.361,177.866 229.782,181.854 227.311,185.132 L297.588,279.578 C297.603,279.575 297.617,279.569 297.632,279.565 ZM224.230,257.518 C231.086,259.017 236.292,264.891 236.771,272.064 L286.919,286.497 C287.293,286.023 287.692,285.572 288.107,285.135 L218.770,191.952 C217.778,192.395 216.749,192.770 215.685,193.063 L224.230,257.518 ZM256.101,120.930 C253.666,122.420 250.813,123.294 247.748,123.294 C246.144,123.294 244.598,123.052 243.136,122.614 L224.494,155.823 C226.651,157.765 228.414,160.133 229.661,162.790 L287.934,152.963 C288.186,150.130 288.884,147.426 289.967,144.924 L256.101,120.930 ZM345.816,51.467 L263.110,102.735 C263.539,104.180 263.778,105.706 263.778,107.290 C263.778,109.076 263.473,110.787 262.932,112.391 L296.297,136.030 C300.969,131.737 307.204,129.113 314.054,129.113 C315.075,129.113 316.081,129.177 317.072,129.291 L347.425,53.063 C346.859,52.561 346.319,52.031 345.816,51.467 ZM370.842,54.368 C367.763,56.538 364.016,57.826 359.958,57.826 C359.076,57.826 358.212,57.759 357.363,57.642 L327.443,132.782 C330.647,134.685 333.407,137.250 335.540,140.287 L423.590,112.253 C423.436,111.105 423.349,109.935 423.349,108.745 C423.349,104.290 424.467,100.097 426.432,96.424 L370.842,54.368 ZM503.978,51.462 L378.179,44.041 C378.011,44.634 377.807,45.211 377.585,45.779 L433.489,88.072 C437.932,84.620 443.513,82.558 449.580,82.558 C454.945,82.558 459.931,84.169 464.087,86.928 L504.219,52.289 C504.135,52.015 504.047,51.742 503.978,51.462 ZM528.439,60.944 C525.891,62.649 522.827,63.645 519.529,63.645 C516.300,63.645 513.300,62.685 510.787,61.043 L471.743,94.744 C474.086,98.434 475.522,102.750 475.762,107.383 L603.569,122.331 C603.671,122.092 603.772,121.851 603.883,121.617 L528.439,60.944 ZM624.311,151.597 C623.874,151.624 623.440,151.663 622.995,151.663 C616.498,151.663 610.707,148.721 606.835,144.114 L539.238,178.278 C540.626,181.995 541.388,186.016 541.388,190.216 C541.388,191.447 541.300,192.655 541.173,193.851 L645.238,216.150 C645.929,215.250 646.713,214.425 647.576,213.690 L624.311,151.597 Z" class="cls-1"/>
    <path d="M864.061,562.328 C870.764,564.238 875.929,568.074 879.556,573.837 C883.181,579.601 884.995,586.712 884.995,595.168 C884.995,609.628 881.009,620.540 873.040,627.906 C865.069,635.272 853.525,638.955 838.406,638.955 L788.944,638.955 L788.944,489.997 L835.122,489.997 C850.720,489.997 862.573,493.459 870.679,500.381 C878.786,507.304 882.840,517.450 882.840,530.817 C882.840,538.388 881.162,544.902 877.811,550.358 C874.459,555.815 869.875,559.805 864.061,562.328 ZM848.463,519.461 C845.726,516.529 841.279,515.062 835.122,515.062 L819.114,515.062 L819.114,552.301 L834.815,552.301 C846.649,552.301 852.567,546.198 852.567,533.989 C852.567,527.236 851.198,522.394 848.463,519.461 ZM840.356,574.195 L819.114,574.195 L819.114,613.992 L838.406,613.992 C843.810,613.992 847.914,612.322 850.720,608.979 C853.525,605.638 854.928,600.897 854.928,594.759 C854.928,581.392 850.069,574.537 840.356,574.195 ZM717.009,641.001 C701.001,641.001 688.772,636.842 680.324,628.520 C671.874,620.200 667.650,608.161 667.650,592.406 L667.650,489.997 L698.025,489.997 L698.025,592.508 C698.025,600.966 699.393,607.002 702.130,610.616 C704.865,614.232 709.826,616.039 717.009,616.039 C724.193,616.039 729.118,614.248 731.786,610.667 C734.454,607.087 735.822,601.204 735.891,593.020 L735.891,489.997 L766.061,489.997 L766.061,593.122 C765.923,608.605 761.648,620.455 753.233,628.673 C744.819,636.893 732.744,641.001 717.009,641.001 ZM614.597,575.218 L570.061,575.218 L570.061,638.955 L539.891,638.955 L539.891,489.997 L570.061,489.997 L570.061,550.255 L614.597,550.255 L614.597,489.997 L644.664,489.997 L644.664,638.955 L614.597,638.955 L614.597,575.218 ZM464.159,563.044 L514.339,563.044 L514.339,587.188 L464.159,587.188 L464.159,563.044 ZM394.277,586.574 L374.164,586.574 L374.164,638.955 L343.994,638.955 L343.994,489.997 L394.892,489.997 C409.669,489.997 421.453,494.567 430.244,503.706 C439.034,512.846 443.430,524.714 443.430,539.308 C443.430,553.905 439.085,565.432 430.398,573.888 C421.709,582.346 409.669,586.574 394.277,586.574 ZM408.130,521.763 C404.914,517.364 400.604,515.131 395.200,515.062 L374.164,515.062 L374.164,561.509 L394.892,561.509 C400.639,561.509 405.085,559.634 408.233,555.882 C411.379,552.132 412.953,546.675 412.953,539.513 C412.953,532.080 411.345,526.162 408.130,521.763 ZM240.863,489.997 L326.446,489.997 L326.446,515.062 L271.033,515.062 L271.033,550.255 L318.032,550.255 L318.032,574.502 L271.033,574.502 L271.033,613.992 L326.651,613.992 L326.651,638.955 L240.863,638.955 L240.863,489.997 ZM137.732,489.997 L223.315,489.997 L223.315,515.062 L167.902,515.062 L167.902,550.255 L214.901,550.255 L214.901,574.502 L167.902,574.502 L167.902,613.992 L223.521,613.992 L223.521,638.955 L137.732,638.955 L137.732,489.997 ZM57.690,638.955 L19.004,638.955 L19.004,489.997 L58.511,489.997 C75.956,489.997 89.861,495.521 100.225,506.570 C110.590,517.619 115.875,532.761 116.080,551.995 L116.080,576.139 C116.080,595.715 110.898,611.077 100.533,622.228 C90.169,633.380 75.887,638.955 57.690,638.955 ZM85.910,552.813 C85.910,538.899 83.961,529.198 80.061,523.707 C76.162,518.217 69.525,515.335 60.153,515.062 L49.173,515.062 L49.173,613.992 L58.203,613.992 C68.260,613.992 75.341,611.350 79.445,606.064 C83.550,600.779 85.705,591.656 85.910,578.697 L85.910,552.813 Z" class="cls-2"/>
  </g>
</svg>
